<svg width="84" height="48" viewBox="0 0 84 48" fill="none" xmlns="http://www.w3.org/2000/svg">
<g clip-path="url(#clip0_2010_16)">
<path d="M2.84 17.84C2.86667 17.6533 2.93333 17.52 3.04 17.44C3.17333 17.36 3.29333 17.3333 3.4 17.36C3.53333 17.3867 3.64 17.4533 3.72 17.56C3.8 17.64 3.84 17.7733 3.84 17.96V18.04C3.94667 18.68 4.30667 19.08 4.92 19.24C5.56 19.3733 6.24 19.4 6.96 19.32C7.92 17.4 8.90667 15.5867 9.92 13.88C10.9333 12.1467 12.12 10.44 13.48 8.76C14.36 7.69333 15.24 6.68 16.12 5.72C17 4.73333 17.88 3.88 18.76 3.16C19.6667 2.41333 20.5867 1.81333 21.52 1.36C22.4533 0.906664 23.4267 0.653331 24.44 0.599998C25.4267 0.546666 26.1867 0.679999 26.72 0.999998C27.2533 1.32 27.5867 1.77333 27.72 2.36C27.88 2.94667 27.8667 3.64 27.68 4.44C27.4933 5.21333 27.1733 6.04 26.72 6.92C26.2933 7.77333 25.7467 8.65333 25.08 9.56C24.4133 10.4667 23.68 11.32 22.88 12.12C21.1467 13.8533 19.16 15.3067 16.92 16.48C14.7067 17.6533 12.0133 18.7467 8.84 19.76C8.54667 20.32 8.25333 20.8533 7.96 21.36C7.69333 21.8667 7.45333 22.3467 7.24 22.8C6.73333 23.8133 6.26667 24.8933 5.84 26.04C5.41333 27.16 5.10667 28.2267 4.92 29.24C4.76 30.2267 4.76 31.08 4.92 31.8C5.08 32.4933 5.50667 32.9067 6.2 33.04C7.08 33.2267 8.22667 32.4667 9.64 30.76C10.2 30.0933 10.7467 29.3067 11.28 28.4C11.84 27.4667 12.2933 26.6 12.64 25.8C12.9067 25.1333 13.0933 24.4933 13.2 23.88C13.3067 23.2667 13.3067 22.72 13.2 22.24C13.12 21.76 12.9067 21.4 12.56 21.16C12.24 20.8933 11.76 20.7867 11.12 20.84C10.8267 20.8667 10.6 20.8267 10.44 20.72C10.3067 20.6133 10.2533 20.5067 10.28 20.4C10.3067 20.2667 10.4267 20.16 10.64 20.08C10.88 19.9733 11.2267 19.96 11.68 20.04C12.4 20.1467 13 20.3867 13.48 20.76C13.96 21.1067 14.32 21.5467 14.56 22.08C14.8267 22.5867 14.9733 23.16 15 23.8C15.0533 24.4133 15.0133 25.04 14.88 25.68C14.6933 26.5333 14.4 27.3867 14 28.24C13.6267 29.0933 13.16 29.8933 12.6 30.64C12.04 31.3867 11.4 32.04 10.68 32.6C9.96 33.1333 9.18667 33.5067 8.36 33.72C7.21333 34.04 6.24 34.1467 5.44 34.04C4.66667 33.9333 4.05333 33.68 3.6 33.28C3.17333 32.88 2.89333 32.3733 2.76 31.76C2.62667 31.12 2.65333 30.44 2.84 29.72C3 29.1067 3.22667 28.4267 3.52 27.68C3.84 26.9333 4.2 26.1467 4.6 25.32C3.66667 27.08 2.85333 28.5733 2.16 29.8C1.46667 31 0.92 31.7867 0.52 32.16C0.36 32.2933 0.24 32.2933 0.16 32.16C0.0533333 32 0.0666666 31.8267 0.2 31.64C0.6 31.1067 1.02667 30.4267 1.48 29.6C1.96 28.7733 2.45333 27.8667 2.96 26.88C3.49333 25.8667 4.04 24.8 4.6 23.68C5.18667 22.5333 5.77333 21.4 6.36 20.28C5.77333 20.3333 5.21333 20.3067 4.68 20.2C4.17333 20.0667 3.73333 19.7733 3.36 19.32C3.17333 19.1067 3.02667 18.88 2.92 18.64C2.81333 18.3733 2.78667 18.1067 2.84 17.84ZM9.56 18.52C11.72 17.9067 13.8933 17.0267 16.08 15.88C18.2933 14.7067 20.2933 13.2 22.08 11.36C23.04 10.3733 23.88 9.33333 24.6 8.24C25.3467 7.12 25.88 6.09333 26.2 5.16C26.5467 4.22667 26.6267 3.45333 26.44 2.84C26.28 2.22666 25.7867 1.92 24.96 1.92C24.08 1.92 23.16 2.2 22.2 2.76C21.2667 3.32 20.32 4.06667 19.36 5C18.4 5.93333 17.4533 7 16.52 8.2C15.6133 9.37333 14.7333 10.5733 13.88 11.8C13.0267 13.0267 12.2267 14.2267 11.48 15.4C10.76 16.5733 10.12 17.6133 9.56 18.52ZM22.1891 32.92C22.1091 33.3733 21.8824 33.76 21.5091 34.08C21.1357 34.4 20.7224 34.56 20.2691 34.56C19.8157 34.56 19.4557 34.4 19.1891 34.08C18.9224 33.76 18.8291 33.3733 18.9091 32.92C18.9624 32.4667 19.1757 32.08 19.5491 31.76C19.9491 31.44 20.3757 31.28 20.8291 31.28C21.2824 31.28 21.6424 31.44 21.9091 31.76C22.1757 32.08 22.2691 32.4667 22.1891 32.92ZM24.9494 17.84C24.976 17.6533 25.0427 17.52 25.1494 17.44C25.2827 17.36 25.4027 17.3333 25.5094 17.36C25.6427 17.3867 25.7494 17.4533 25.8294 17.56C25.9094 17.64 25.9494 17.7733 25.9494 17.96V18.04C26.056 18.68 26.416 19.08 27.0294 19.24C27.6694 19.3733 28.3494 19.4 29.0694 19.32C30.0294 17.4 31.016 15.5867 32.0294 13.88C33.0427 12.1467 34.2294 10.44 35.5894 8.76C36.4694 7.69333 37.3494 6.68 38.2294 5.72C39.1094 4.73333 39.9894 3.88 40.8694 3.16C41.776 2.41333 42.696 1.81333 43.6294 1.36C44.5627 0.906664 45.536 0.653331 46.5494 0.599998C47.536 0.546666 48.296 0.679999 48.8294 0.999998C49.3627 1.32 49.696 1.77333 49.8294 2.36C49.9894 2.94667 49.976 3.64 49.7894 4.44C49.6027 5.21333 49.2827 6.04 48.8294 6.92C48.4027 7.77333 47.856 8.65333 47.1894 9.56C46.5227 10.4667 45.7894 11.32 44.9894 12.12C43.256 13.8533 41.2694 15.3067 39.0294 16.48C36.816 17.6533 34.1227 18.7467 30.9494 19.76C30.656 20.32 30.3627 20.8533 30.0694 21.36C29.8027 21.8667 29.5627 22.3467 29.3494 22.8C28.8427 23.8133 28.376 24.8933 27.9494 26.04C27.5227 27.16 27.216 28.2267 27.0294 29.24C26.8694 30.2267 26.8694 31.08 27.0294 31.8C27.1894 32.4933 27.616 32.9067 28.3094 33.04C29.1894 33.2267 30.336 32.4667 31.7494 30.76C32.3094 30.0933 32.856 29.3067 33.3894 28.4C33.9494 27.4667 34.4027 26.6 34.7494 25.8C35.016 25.1333 35.2027 24.4933 35.3094 23.88C35.416 23.2667 35.416 22.72 35.3094 22.24C35.2294 21.76 35.016 21.4 34.6694 21.16C34.3494 20.8933 33.8694 20.7867 33.2294 20.84C32.936 20.8667 32.7094 20.8267 32.5494 20.72C32.416 20.6133 32.3627 20.5067 32.3894 20.4C32.416 20.2667 32.536 20.16 32.7494 20.08C32.9894 19.9733 33.336 19.96 33.7894 20.04C34.5094 20.1467 35.1094 20.3867 35.5894 20.76C36.0694 21.1067 36.4294 21.5467 36.6694 22.08C36.936 22.5867 37.0827 23.16 37.1094 23.8C37.1627 24.4133 37.1227 25.04 36.9894 25.68C36.8027 26.5333 36.5094 27.3867 36.1094 28.24C35.736 29.0933 35.2694 29.8933 34.7094 30.64C34.1494 31.3867 33.5094 32.04 32.7894 32.6C32.0694 33.1333 31.296 33.5067 30.4694 33.72C29.3227 34.04 28.3494 34.1467 27.5494 34.04C26.776 33.9333 26.1627 33.68 25.7094 33.28C25.2827 32.88 25.0027 32.3733 24.8694 31.76C24.736 31.12 24.7627 30.44 24.9494 29.72C25.1094 29.1067 25.336 28.4267 25.6294 27.68C25.9494 26.9333 26.3094 26.1467 26.7094 25.32C25.776 27.08 24.9627 28.5733 24.2694 29.8C23.576 31 23.0294 31.7867 22.6294 32.16C22.4694 32.2933 22.3494 32.2933 22.2694 32.16C22.1627 32 22.176 31.8267 22.3094 31.64C22.7094 31.1067 23.136 30.4267 23.5894 29.6C24.0694 28.7733 24.5627 27.8667 25.0694 26.88C25.6027 25.8667 26.1494 24.8 26.7094 23.68C27.296 22.5333 27.8827 21.4 28.4694 20.28C27.8827 20.3333 27.3227 20.3067 26.7894 20.2C26.2827 20.0667 25.8427 19.7733 25.4694 19.32C25.2827 19.1067 25.136 18.88 25.0294 18.64C24.9227 18.3733 24.896 18.1067 24.9494 17.84ZM31.6694 18.52C33.8294 17.9067 36.0027 17.0267 38.1894 15.88C40.4027 14.7067 42.4027 13.2 44.1894 11.36C45.1494 10.3733 45.9894 9.33333 46.7094 8.24C47.456 7.12 47.9894 6.09333 48.3094 5.16C48.656 4.22667 48.736 3.45333 48.5494 2.84C48.3894 2.22666 47.896 1.92 47.0694 1.92C46.1894 1.92 45.2694 2.2 44.3094 2.76C43.376 3.32 42.4294 4.06667 41.4694 5C40.5094 5.93333 39.5627 7 38.6294 8.2C37.7227 9.37333 36.8427 10.5733 35.9894 11.8C35.136 13.0267 34.336 14.2267 33.5894 15.4C32.8694 16.5733 32.2294 17.6133 31.6694 18.52ZM53.7384 26.64C53.4451 27.2533 53.0718 27.9733 52.6184 28.8C52.1918 29.6267 51.7118 30.4267 51.1784 31.2C50.6451 31.9733 50.0718 32.64 49.4584 33.2C48.8718 33.7333 48.2851 34.0267 47.6984 34.08C47.3784 34.1067 47.0318 34.0533 46.6584 33.92C46.2851 33.76 45.9784 33.4933 45.7384 33.12C45.4984 32.72 45.3518 32.1867 45.2984 31.52C45.2718 30.8267 45.4051 29.96 45.6984 28.92C45.3784 29.4533 44.9651 30.08 44.4584 30.8C43.9518 31.4933 43.4051 32.12 42.8184 32.68C42.0451 33.4267 41.3251 33.8667 40.6584 34C40.0184 34.1333 39.4718 34.04 39.0184 33.72C38.5651 33.3733 38.2318 32.84 38.0184 32.12C37.8318 31.4 37.8051 30.56 37.9384 29.6C38.0718 28.6133 38.3918 27.5467 38.8984 26.4C39.4318 25.2267 40.2051 24.04 41.2184 22.84C41.8051 22.12 42.5118 21.5067 43.3384 21C44.1918 20.4933 45.0451 20.1333 45.8984 19.92C46.7784 19.7067 47.6184 19.68 48.4184 19.84C49.2451 20 49.9384 20.3867 50.4984 21C50.7918 21.2933 50.8718 21.5733 50.7384 21.84C50.6318 22.1067 50.4051 22.2133 50.0584 22.16C49.8451 21.4133 49.4051 20.96 48.7384 20.8C48.0984 20.64 47.4051 20.76 46.6584 21.16C45.7518 21.6667 44.8184 22.4533 43.8584 23.52C42.8984 24.56 42.0584 25.68 41.3384 26.88C41.2584 27.0133 41.1384 27.2267 40.9784 27.52C40.8184 27.8133 40.6451 28.16 40.4584 28.56C40.2984 28.9333 40.1384 29.3333 39.9784 29.76C39.8451 30.16 39.7518 30.5467 39.6984 30.92C39.5918 31.6133 39.6318 32.12 39.8184 32.44C40.0318 32.76 40.3118 32.92 40.6584 32.92C41.0318 32.92 41.4584 32.7733 41.9384 32.48C42.4184 32.16 42.8984 31.72 43.3784 31.16C44.0718 30.3067 44.6984 29.4133 45.2584 28.48C45.8451 27.52 46.4051 26.5467 46.9384 25.56C47.3918 24.7067 47.7918 24.0533 48.1384 23.6C48.5118 23.1467 49.0184 22.9467 49.6584 23C49.9251 23.0267 50.1918 23.08 50.4584 23.16C50.7518 23.2133 51.0451 23.2133 51.3384 23.16C51.1251 23.3733 50.8318 23.7733 50.4584 24.36C50.1118 24.92 49.7384 25.5733 49.3384 26.32C48.9651 27.04 48.6184 27.7867 48.2984 28.56C47.9784 29.3333 47.7518 30.0267 47.6184 30.64C47.2984 32.24 47.4318 33.04 48.0184 33.04C48.4451 33.0667 48.9118 32.8133 49.4184 32.28C49.9251 31.7467 50.4184 31.1067 50.8984 30.36C51.4051 29.6133 51.8584 28.8667 52.2584 28.12C52.6584 27.3467 52.9651 26.7467 53.1784 26.32C53.3651 25.9733 53.5518 25.84 53.7384 25.92C53.9251 26 53.9251 26.24 53.7384 26.64ZM69.4028 26.64C68.8961 27.68 68.4295 28.6133 68.0028 29.44C67.5761 30.2667 67.1228 31 66.6428 31.64C66.1895 32.2533 65.6961 32.8 65.1628 33.28C64.6295 33.7333 63.9895 34.1333 63.2428 34.48C62.7895 35.7333 62.1361 37.0667 61.2828 38.48C60.4561 39.92 59.4695 41.24 58.3228 42.44C57.2028 43.64 55.9628 44.64 54.6028 45.44C53.2428 46.24 51.8428 46.64 50.4028 46.64C47.8961 46.64 46.6428 45.6133 46.6428 43.56C46.6428 42.5733 46.9895 41.6933 47.6828 40.92C48.3495 40.1733 49.1628 39.52 50.1228 38.96C51.1095 38.3733 52.0695 37.88 53.0028 37.48C53.9361 37.08 54.8428 36.72 55.7228 36.4C56.6295 36.08 57.4961 35.7867 58.3228 35.52C59.1761 35.2533 59.9895 34.96 60.7628 34.64C61.0028 33.9467 61.1895 33.24 61.3228 32.52C61.4828 31.7733 61.6028 31 61.6828 30.2C61.7628 29.4267 61.8028 28.7467 61.8028 28.16C61.8028 27.5467 61.7761 27.1333 61.7228 26.92C61.4028 27.5333 60.9628 28.2933 60.4028 29.2C59.8695 30.08 59.2561 30.9067 58.5628 31.68C57.8961 32.4533 57.1761 33.0667 56.4028 33.52C55.6295 33.9733 54.8428 34.08 54.0428 33.84C53.0295 33.4133 52.3895 32.7733 52.1228 31.92C51.8828 31.04 51.8828 30.08 52.1228 29.04C52.3628 27.9733 52.7761 26.8933 53.3628 25.8C53.9761 24.7067 54.6561 23.72 55.4028 22.84C55.9895 22.12 56.6561 21.52 57.4028 21.04C58.1761 20.5333 58.9761 20.1867 59.8028 20C60.6295 19.7867 61.4561 19.76 62.2828 19.92C63.1361 20.0533 63.9361 20.4133 64.6828 21C65.0295 21.2933 65.2161 21.5733 65.2428 21.84C65.2961 22.1067 65.2561 22.32 65.1228 22.48C65.0161 22.6133 64.8695 22.6667 64.6828 22.64C64.4961 22.6133 64.3495 22.4533 64.2428 22.16C63.9761 21.44 63.6028 20.9867 63.1228 20.8C62.6695 20.6133 62.1495 20.6267 61.5628 20.84C60.9761 21.0267 60.3495 21.3733 59.6828 21.88C59.0428 22.3867 58.4161 22.9733 57.8028 23.64C57.0828 24.4667 56.4161 25.36 55.8028 26.32C55.1895 27.28 54.7095 28.2 54.3628 29.08C54.0428 29.9333 53.8828 30.6933 53.8828 31.36C53.9095 32 54.1895 32.44 54.7228 32.68C55.3095 32.92 55.9628 32.7867 56.6828 32.28C57.4295 31.7467 58.1361 31.0533 58.8028 30.2C59.4961 29.32 60.1095 28.4 60.6428 27.44C61.1761 26.48 61.5361 25.68 61.7228 25.04C61.8561 24.5867 62.0295 24.2667 62.2428 24.08C62.4561 23.8933 62.6828 23.7733 62.9228 23.72C63.1628 23.6667 63.3895 23.64 63.6028 23.64C63.8428 23.64 64.0428 23.5733 64.2028 23.44C64.4695 25.04 64.5495 26.6667 64.4428 28.32C64.3628 29.9467 64.1095 31.56 63.6828 33.16C64.1628 32.8133 64.6428 32.4267 65.1228 32C65.6295 31.5733 66.0828 31.0933 66.4828 30.56C67.1495 29.68 67.6428 28.8533 67.9628 28.08C68.3095 27.28 68.5895 26.6933 68.8028 26.32C68.9895 25.9733 69.1761 25.84 69.3628 25.92C69.5761 26 69.5895 26.24 69.4028 26.64ZM60.3628 35.8C60.1495 35.88 59.9228 35.96 59.6828 36.04C59.4428 36.12 59.2028 36.2 58.9628 36.28C57.4961 36.7867 55.9761 37.3333 54.4028 37.92C52.8561 38.5333 51.4428 39.2667 50.1628 40.12C49.5228 40.5467 48.9761 41.08 48.5228 41.72C48.0428 42.3867 47.7361 43.0133 47.6028 43.6C47.4428 44.2133 47.5095 44.7333 47.8028 45.16C48.0695 45.6133 48.6161 45.84 49.4428 45.84C49.8695 45.84 50.3361 45.76 50.8428 45.6C51.3228 45.4667 51.7895 45.2933 52.2428 45.08C52.6961 44.8667 53.1228 44.64 53.5228 44.4C53.9228 44.16 54.2428 43.9467 54.4828 43.76C55.0961 43.2533 55.7095 42.6533 56.3228 41.96C56.9361 41.2933 57.5228 40.5867 58.0828 39.84C59.0695 38.4533 59.8295 37.1067 60.3628 35.8ZM79.7069 26.44C79.3335 27.2667 78.9069 28.1733 78.4269 29.16C77.9469 30.1467 77.3602 31.04 76.6669 31.84C75.8402 32.8267 74.9069 33.52 73.8669 33.92C72.8269 34.2933 71.6935 34.48 70.4669 34.48C70.0669 34.48 69.6669 34.4533 69.2669 34.4C68.8669 34.3467 68.4935 34.2533 68.1469 34.12C67.8002 34.0133 67.4802 33.8667 67.1869 33.68C66.9202 33.4667 66.7202 33.2133 66.5869 32.92C66.3735 32.4667 66.2535 31.9867 66.2269 31.48C66.1735 30.9733 66.2002 30.5067 66.3069 30.08C66.4135 29.6267 66.5869 29.2533 66.8269 28.96C67.0669 28.6667 67.3469 28.52 67.6669 28.52C68.2002 27.5067 68.7602 26.3867 69.3469 25.16C69.9335 23.9067 70.5202 22.72 71.1069 21.6C71.4802 20.8533 71.8935 20.1467 72.3469 19.48C72.8002 18.7867 73.2669 18.2 73.7469 17.72C74.2535 17.2133 74.7469 16.8667 75.2269 16.68C75.7335 16.4933 76.1869 16.4133 76.5869 16.44C76.9335 16.4667 77.2135 16.5867 77.4269 16.8C77.6669 17.0133 77.8002 17.2533 77.8269 17.52C77.8802 17.76 77.8135 18.0133 77.6269 18.28C77.4669 18.52 77.1735 18.68 76.7469 18.76C76.4802 18.8133 76.2269 18.8 75.9869 18.72C75.7469 18.6133 75.5202 18.4933 75.3069 18.36C75.0135 18.2 74.7335 18.1333 74.4669 18.16C74.2269 18.1867 74.0135 18.28 73.8269 18.44C73.6402 18.6 73.4802 18.8133 73.3469 19.08C73.2135 19.32 73.1335 19.5867 73.1069 19.88C73.0002 20.5733 73.0135 21.3333 73.1469 22.16C73.2802 22.9867 73.4402 23.6267 73.6269 24.08C73.9469 24.8533 74.2802 25.6133 74.6269 26.36C74.9735 27.1067 75.1202 27.92 75.0669 28.8C75.0402 29.2 74.9469 29.6533 74.7869 30.16C74.6269 30.6667 74.4002 31.16 74.1069 31.64C73.8135 32.12 73.4535 32.5467 73.0269 32.92C72.6269 33.2667 72.1735 33.48 71.6669 33.56C72.4402 33.64 73.2402 33.4667 74.0669 33.04C74.8935 32.6133 75.5735 32.08 76.1069 31.44C76.3469 31.1733 76.5869 30.8267 76.8269 30.4C77.0935 29.9467 77.3602 29.48 77.6269 29C77.8935 28.52 78.1469 28.04 78.3869 27.56C78.6535 27.0533 78.8935 26.6 79.1069 26.2C79.2135 25.9867 79.3602 25.92 79.5469 26C79.7602 26.08 79.8135 26.2267 79.7069 26.44ZM69.3869 33.48C69.8402 33.48 70.2135 33.3867 70.5069 33.2C70.8269 32.9867 71.1202 32.7333 71.3869 32.44C71.7069 32.0667 71.9735 31.5867 72.1869 31C72.4269 30.3867 72.5735 29.6533 72.6269 28.8C72.6535 28.16 72.6269 27.4933 72.5469 26.8C72.4669 26.1067 72.3735 25.4267 72.2669 24.76C72.1869 24.0667 72.1202 23.4133 72.0669 22.8C72.0135 22.1867 72.0269 21.6533 72.1069 21.2C71.8402 21.7333 71.5335 22.3467 71.1869 23.04C70.8669 23.7067 70.5335 24.3867 70.1869 25.08C69.8402 25.7467 69.5069 26.4 69.1869 27.04C68.8669 27.6533 68.5869 28.1733 68.3469 28.6C68.4269 28.5733 68.5202 28.5867 68.6269 28.64C68.8402 28.7467 69.0002 28.92 69.1069 29.16C69.1602 29.24 69.2002 29.3867 69.2269 29.6C69.2535 29.7867 69.2402 29.9867 69.1869 30.2C69.0535 30.12 68.9069 30.12 68.7469 30.2C68.6135 30.28 68.4802 30.4 68.3469 30.56C68.2402 30.6933 68.1469 30.8533 68.0669 31.04C67.9869 31.2267 67.9335 31.3733 67.9069 31.48C67.7735 32.0133 67.8402 32.48 68.1069 32.88C68.4002 33.28 68.8269 33.48 69.3869 33.48Z" fill="#2C2C2C"/>
</g>
<defs>
<clipPath id="clip0_2010_16">
<rect width="84" height="48" fill="white"/>
</clipPath>
</defs>
</svg>
