<svg width="24" height="24" viewBox="0 0 24 24" fill="none" xmlns="http://www.w3.org/2000/svg">
<path d="M20.8472 14.8559L16.4306 12.8769L16.4184 12.8712C16.1891 12.7732 15.939 12.7338 15.6907 12.7567C15.4424 12.7796 15.2037 12.8641 14.9962 13.0025C14.9718 13.0186 14.9483 13.0361 14.9259 13.055L12.6441 15.0003C11.1984 14.2981 9.70593 12.8169 9.00374 11.39L10.9519 9.07342C10.9706 9.04999 10.9884 9.02655 11.0053 9.00124C11.1407 8.79433 11.2229 8.55716 11.2444 8.31084C11.266 8.06451 11.2264 7.81667 11.1291 7.58936V7.57811L9.14437 3.15405C9.01569 2.85711 8.79442 2.60975 8.51361 2.4489C8.23279 2.28804 7.90748 2.22232 7.58624 2.26155C6.3159 2.42871 5.14985 3.05258 4.30587 4.01664C3.46189 4.98069 2.9977 6.21901 2.99999 7.5003C2.99999 14.944 9.05624 21.0003 16.5 21.0003C17.7813 21.0026 19.0196 20.5384 19.9837 19.6944C20.9477 18.8504 21.5716 17.6844 21.7387 16.414C21.778 16.0929 21.7125 15.7677 21.5518 15.4869C21.3911 15.2061 21.1439 14.9848 20.8472 14.8559ZM16.5 19.5003C13.3185 19.4968 10.2682 18.2314 8.01855 15.9817C5.76886 13.7321 4.50347 10.6818 4.49999 7.5003C4.49647 6.58482 4.82629 5.69936 5.42787 5.00927C6.02945 4.31919 6.86165 3.87167 7.76906 3.7503C7.76869 3.75404 7.76869 3.75781 7.76906 3.76155L9.73781 8.1678L7.79999 10.4872C7.78032 10.5098 7.76246 10.5339 7.74656 10.5594C7.60548 10.7758 7.52271 11.0251 7.50629 11.283C7.48986 11.5409 7.54033 11.7986 7.65281 12.0312C8.50218 13.7684 10.2525 15.5056 12.0084 16.354C12.2428 16.4655 12.502 16.5142 12.7608 16.4955C13.0196 16.4767 13.2691 16.3912 13.485 16.2472C13.5091 16.231 13.5322 16.2134 13.5544 16.1947L15.8334 14.2503L20.2397 16.2237C20.2397 16.2237 20.2472 16.2237 20.25 16.2237C20.1301 17.1324 19.6833 17.9663 18.993 18.5694C18.3028 19.1724 17.4165 19.5034 16.5 19.5003Z" fill="#2C2C2C"/>
</svg>
